Coordinates
version=1
nRows=16
nColumns=63
inDegrees=yes

Units are S.I. units (second, meters, Newtons, ...)
If the header above contains a line with 'inDegrees', this indicates whether rotational values are in degrees (yes) or radians (no).

endheader
time	pelvis_tilt	pelvis_list	pelvis_rotation	pelvis_tx	pelvis_ty	pelvis_tz	hip_flexion_r	hip_adduction_r	hip_rotation_r	knee_angle_r	knee_angle_r_beta	ankle_angle_r	subtalar_angle_r	mtp_angle_r	hip_flexion_l	hip_adduction_l	hip_rotation_l	knee_angle_l	knee_angle_l_beta	ankle_angle_l	subtalar_angle_l	mtp_angle_l	L5_S1_Flex_Ext	L5_S1_Lat_Bending	L5_S1_axial_rotation	L4_L5_Flex_Ext	L4_L5_Lat_Bending	L4_L5_axial_rotation	L3_L4_Flex_Ext	L3_L4_Lat_Bending	L3_L4_axial_rotation	L2_L3_Flex_Ext	L2_L3_Lat_Bending	L2_L3_axial_rotation	L1_L2_Flex_Ext	L1_L2_Lat_Bending	L1_L2_axial_rotation	L1_T12_Flex_Ext	L1_T12_Lat_Bending	L1_T12_axial_rotation	Abs_r3	Abs_r2	Abs_r1	Abs_t1	Abs_t2	neck_flexion	neck_bending	neck_rotation	arm_flex_r	arm_add_r	arm_rot_r	elbow_flex_r	pro_sup_r	wrist_flex_r	wrist_dev_r	arm_flex_l	arm_add_l	arm_rot_l	elbow_flex_l	pro_sup_l	wrist_flex_l	wrist_dev_l
9.850000	-5.029895	-11.095482	78.766091	0.280328	0.884090	0.617746	19.067244	-5.074702	16.766111	12.657540	0.220916	43.566683	5.963169	0.000000	13.883196	3.986939	13.046415	8.542059	0.149087	35.950942	5.491686	0.000000	-0.102745	-0.969015	-0.448376	-0.190807	-1.288789	-0.476400	-0.168800	-2.356062	-0.476400	-0.117427	-2.356062	-0.392329	-0.095409	-1.976015	-0.364306	-0.058708	-1.501004	-0.336282	-0.733896	-10.961687	-2.493735	0.000000	0.000000	8.773857	1.666569	5.753066	-176.532733	-144.867743	-202.376945	80.167609	24.196015	22.124593	9.657043	163.393406	-112.503545	74.469122	149.913509	77.804507	5.972851	-18.529602
9.866667	-4.701617	-11.491703	78.939458	0.279089	0.883608	0.616136	19.234380	-4.751668	17.560651	12.159860	0.212230	43.217926	5.318621	0.000000	14.116800	3.731313	13.739543	8.172092	0.142630	35.524006	4.045223	0.000000	-0.067901	-0.865503	-0.342333	-0.126099	-1.151119	-0.363728	-0.111555	-2.104383	-0.363728	-0.077604	-2.104383	-0.299541	-0.063053	-1.764933	-0.278145	-0.038799	-1.340664	-0.256749	-0.485011	-9.790739	-1.903952	0.000000	0.000000	9.966788	0.800638	6.351169	-179.902258	-142.805032	-215.575771	90.976603	27.697418	14.576803	13.394292	157.918606	-111.984744	68.194215	149.914331	77.930792	5.071174	-19.399839
9.883333	-4.260464	-11.924078	79.130638	0.277595	0.883221	0.614535	19.315668	-4.343071	18.571394	11.509728	0.200883	42.668470	4.385058	0.000000	14.353126	3.384814	14.658629	7.831675	0.136689	34.959963	2.262448	0.000000	-0.036558	-0.745834	-0.158599	-0.067891	-0.991959	-0.168512	-0.060060	-1.813420	-0.168512	-0.041782	-1.813420	-0.138774	-0.033947	-1.520904	-0.128862	-0.020889	-1.155296	-0.118949	-0.261127	-8.437019	-0.882082	0.000000	0.000000	11.084700	-0.188364	6.511776	-183.991763	-140.044323	-228.431524	100.810776	31.901241	7.499133	16.712192	153.130230	-111.715220	63.353023	149.914600	78.122878	3.859569	-20.153724
9.900000	-3.747304	-12.385571	79.329570	0.275934	0.882906	0.612989	19.325662	-3.888944	19.741985	10.757569	0.187755	41.943192	3.217275	0.000000	14.598853	2.981274	15.799596	7.541995	0.131633	34.262165	0.191366	0.000000	-0.009399	-0.619135	0.101742	-0.017456	-0.823450	0.108101	-0.015442	-1.505365	0.108101	-0.010743	-1.505365	0.089025	-0.008728	-1.262540	0.082666	-0.005371	-0.959040	0.076307	-0.067140	-7.003780	0.565860	0.000000	0.000000	12.095833	-1.191791	6.139018	-188.666729	-136.590340	-240.518091	109.277726	36.645457	1.597944	19.526153	149.255148	-111.603273	60.165486	149.914056	78.361243	2.399279	-20.789651
9.916667	-3.221529	-12.856210	79.503979	0.274282	0.882705	0.611558	19.275610	-3.439107	21.054611	9.949768	0.173656	41.062542	1.849297	0.000000	14.843484	2.562295	17.120343	7.287911	0.127198	33.444266	-2.101193	0.000000	0.012357	-0.498467	0.433713	0.022948	-0.662961	0.460820	0.020302	-1.211972	0.460820	0.014123	-1.211972	0.379499	0.011475	-1.016474	0.352392	0.007061	-0.772125	0.325285	0.088266	-5.638756	2.412182	0.000000	0.000000	12.939914	-2.063893	5.157730	-193.745671	-132.533530	-251.404158	115.977099	41.690101	-2.768635	21.661934	146.566530	-111.476796	58.856897	149.912737	78.618704	0.805512	-21.329237
9.933333	-2.737806	-13.292287	79.683255	0.272784	0.882775	0.610307	19.129904	-3.056463	22.408223	9.095200	0.158741	40.043306	0.331519	0.000000	15.059356	2.182025	18.589727	7.047895	0.123009	32.556815	-4.447342	0.000000	0.024793	-0.401231	0.816016	0.046043	-0.533638	0.867017	0.040733	-0.975554	0.867017	0.028336	-0.975554	0.714014	0.023023	-0.818191	0.663013	0.014167	-0.621507	0.612012	0.177095	-4.538809	4.538438	0.000000	0.000000	13.529014	-2.531243	3.442291	-199.026935	-128.063038	-260.727176	120.503007	46.769077	-5.788975	22.874546	145.533615	-111.060260	59.831860	149.910165	78.893748	-0.807033	-21.771230
9.950000	-2.504894	-13.604824	79.718217	0.271991	0.882811	0.609781	19.018313	-2.866549	24.100256	8.438230	0.147275	39.048761	-1.551356	0.000000	15.249734	1.989392	19.849724	6.837813	0.119342	31.691947	-6.535064	0.000000	0.023027	-0.350297	0.855088	0.042764	-0.465895	0.908531	0.037831	-0.851712	0.908531	0.026318	-0.851712	0.748202	0.021383	-0.714326	0.694759	0.013158	-0.542610	0.641316	0.164480	-3.962630	4.755742	0.000000	0.000000	14.374158	-2.569587	3.588646	-201.948752	-124.596621	-265.494740	122.462796	51.701175	-7.409559	23.067645	137.759715	-111.219725	51.430026	149.907719	77.409681	-0.453158	-22.207972
9.966667	-2.342865	-13.807506	79.720332	0.271261	0.883109	0.609648	18.819183	-2.765458	25.764833	7.855105	0.137097	38.012889	-3.565955	0.000000	15.381786	1.867912	21.058357	6.638999	0.115872	30.942396	-8.292035	0.000000	0.007171	-0.329996	0.717381	0.013317	-0.438895	0.762217	0.011781	-0.802352	0.762217	0.008195	-0.802352	0.627708	0.006659	-0.672928	0.582872	0.004097	-0.511164	0.538036	0.051220	-3.732982	3.989857	0.000000	0.000000	14.971113	-2.068363	4.219983	-203.317454	-121.629679	-266.473657	121.447203	56.173932	-7.212915	21.913789	127.953192	-112.247862	39.880095	149.903377	74.841711	1.022977	-22.286881
9.983333	-2.223002	-13.862396	79.702842	0.270465	0.883766	0.609950	18.492098	-2.738642	27.333124	7.344638	0.128188	36.945193	-5.687117	0.000000	15.412616	1.804725	22.238574	6.431956	0.112259	30.330387	-9.682502	0.000000	-0.026664	-0.339594	0.369354	-0.049518	-0.451660	0.392438	-0.043807	-0.825689	0.392438	-0.030475	-0.825689	0.323184	-0.024760	-0.692500	0.300100	-0.015236	-0.526031	0.277015	-0.190461	-3.841557	2.054234	0.000000	0.000000	15.222954	-1.021548	5.425973	-202.693624	-119.357296	-263.190477	117.076892	59.839439	-4.910758	19.152761	116.212831	-114.309558	25.183691	149.897139	71.461453	3.469709	-22.197371
10.000000	-2.201291	-14.231255	79.666587	0.269687	0.883905	0.609814	18.484692	-2.744959	28.661396	6.919675	0.120771	35.980069	-7.764200	0.000000	15.765308	1.773638	23.451545	6.190218	0.108040	29.945453	-10.726345	0.000000	-0.041780	-0.337552	0.446272	-0.077589	-0.448944	0.474164	-0.068640	-0.820724	0.474164	-0.047750	-0.820724	0.390488	-0.038797	-0.688336	0.362596	-0.023873	-0.522868	0.334704	-0.298428	-3.818454	2.482033	0.000000	0.000000	15.387256	-0.495240	4.620372	-206.778030	-117.139770	-269.272840	117.352202	66.013214	-6.142816	19.071486	111.671603	-115.421362	20.031790	149.889460	69.479859	5.211860	-22.250301
10.016667	-2.296752	-14.625877	79.581538	0.269064	0.884031	0.609748	18.576333	-2.833058	29.743145	6.637144	0.115840	35.178610	-9.693517	0.000000	16.169156	1.824428	24.519423	5.913011	0.103202	29.743630	-11.304702	0.000000	-0.057557	-0.356938	0.557109	-0.106889	-0.474727	0.591928	-0.094560	-0.867858	0.591928	-0.065782	-0.867858	0.487470	-0.053447	-0.727867	0.452651	-0.032888	-0.552896	0.417832	-0.411122	-4.037749	3.098473	0.000000	0.000000	15.372077	0.150195	3.386290	-211.173704	-115.361377	-275.662774	117.413376	71.536610	-7.270100	18.667808	109.065773	-116.477161	16.889444	149.881489	67.646375	7.260196	-22.204075
10.033333	-2.453327	-15.044043	79.522741	0.268557	0.884121	0.609736	18.733574	-2.967620	30.554781	6.469567	0.112915	34.540455	-11.476443	0.000000	16.613994	1.924612	25.516861	5.623437	0.098147	29.704951	-11.487835	0.000000	-0.076699	-0.391667	0.689093	-0.142437	-0.520917	0.732162	-0.126008	-0.952299	0.732162	-0.087659	-0.952299	0.602957	-0.071222	-0.798687	0.559888	-0.043826	-0.606692	0.516820	-0.547850	-4.430613	3.832530	0.000000	0.000000	15.262338	0.892146	1.744343	-215.781220	-114.070977	-282.285412	117.353630	76.121148	-8.320815	17.998781	108.433877	-117.369957	15.776537	149.873870	66.115807	9.469064	-22.108307
10.050000	-2.702568	-15.468468	79.426732	0.268293	0.884129	0.609788	18.982157	-3.152553	31.120815	6.443889	0.112467	34.121844	-12.965387	0.000000	17.071528	2.092513	26.472948	5.312284	0.092717	29.761209	-11.519633	0.000000	-0.097438	-0.443102	0.817681	-0.180951	-0.589325	0.868786	-0.160080	-1.077357	0.868786	-0.111361	-1.077357	0.715471	-0.090481	-0.903573	0.664366	-0.055676	-0.686364	0.613261	-0.695987	-5.012453	4.547696	0.000000	0.000000	15.082684	1.633384	-0.031519	-220.146544	-113.191227	-288.692704	117.227435	79.874734	-9.218040	17.145566	108.784898	-117.928689	15.555193	149.867435	64.818183	11.887560	-21.987508
10.066667	-3.032104	-15.893909	79.279310	0.268290	0.884019	0.609964	19.332225	-3.362817	31.515175	6.553522	0.114381	33.918180	-14.148356	0.000000	17.549019	2.300984	27.157856	5.007988	0.087406	29.927784	-11.235802	0.000000	-0.120114	-0.507534	0.927828	-0.223064	-0.675020	0.985817	-0.197335	-1.234017	0.985817	-0.137278	-1.234017	0.811850	-0.111538	-1.034963	0.753860	-0.068633	-0.786170	0.695871	-0.857963	-5.741322	5.160301	0.000000	0.000000	14.891136	2.324747	-1.754371	-223.983129	-112.666490	-294.554201	117.040874	82.736265	-9.886521	16.134100	108.827115	-118.237046	14.893604	149.862627	63.681027	14.468463	-21.789960
10.083333	-3.416689	-16.304437	79.086121	0.268492	0.883809	0.610321	19.780120	-3.591378	31.580042	6.777631	0.118292	33.960637	-14.727851	0.000000	18.028381	2.533546	27.616171	4.714400	0.082282	30.145822	-10.819813	0.000000	-0.146651	-0.579853	0.994688	-0.272346	-0.771204	1.056856	-0.240933	-1.409853	1.056856	-0.167608	-1.409853	0.870352	-0.136180	-1.182435	0.808184	-0.083796	-0.898192	0.746016	-1.047515	-6.559408	5.532156	0.000000	0.000000	14.709044	2.942606	-3.171944	-226.772091	-112.366141	-299.294449	116.762973	84.631564	-10.211032	14.986774	108.140740	-118.663267	13.320020	149.859586	62.802201	16.990893	-21.620883
10.100000	-3.843521	-16.691868	78.850179	0.268868	0.883537	0.610833	20.309253	-3.827659	31.369646	7.078023	0.123535	34.220026	-14.705845	0.000000	18.511583	2.782353	27.771707	4.465210	0.077933	30.428990	-10.250605	0.000000	-0.174826	-0.657021	1.027440	-0.324669	-0.873838	1.091655	-0.287222	-1.597482	1.091655	-0.199809	-1.597482	0.899010	-0.162343	-1.339798	0.834795	-0.099896	-1.017726	0.770580	-1.248765	-7.432357	5.714312	0.000000	0.000000	14.459955	3.493799	-4.245881	-228.434220	-112.253820	-302.782111	116.427775	85.521384	-10.153760	13.737659	107.270788	-119.291534	11.547221	149.858183	62.313860	19.267445	-21.464309
